<svg width="1764" height="993" xmlns="http://www.w3.org/2000/svg" xmlns:xlink="http://www.w3.org/1999/xlink" xml:space="preserve" overflow="hidden"><defs><clipPath id="clip0"><rect x="1224" y="931" width="1764" height="993"/></clipPath></defs><g clip-path="url(#clip0)" transform="translate(-1224 -931)"><text fill="#747474" font-family="Arial Black,Arial Black_MSFontService,sans-serif" font-weight="900" font-size="202" transform="matrix(1 0 0 1 1345.9 1750)">HarmonyFlow</text><g><g><g><path d="M613 536.375 613 613 191.563 613 191.563 536.375 536.375 536.375 536.375 268.188 613 268.188 613 536.375ZM547.333 131.412C544.553 131.222 541.789 130.851 539.057 130.301L453.275 363.318C470.745 375.151 481.32 394.784 481.588 415.882 481.921 452.19 452.757 481.893 416.449 482.226 380.141 482.558 350.438 453.394 350.105 417.086 350.018 407.589 351.99 398.186 355.885 389.523L200.489 285.85C188.254 298.938 171.167 306.407 153.25 306.5 151.833 306.5 150.645 305.772 149.419 305.696L94.7468 488.944C126.016 505.403 138.023 544.093 121.565 575.363 105.107 606.632 66.4157 618.639 35.1463 602.181 3.87687 585.723-8.12993 547.032 8.32831 515.762 19.558 494.427 41.8282 481.216 65.9358 481.588 67.3534 481.588 68.5411 482.316 69.7671 482.393L124.401 299.144C91.5401 283.403 77.6623 244.003 93.4039 211.142 109.145 178.281 148.545 164.404 181.406 180.145 212.73 195.151 227.056 231.873 214.167 264.126L370.789 368.681C382.928 356.935 399.144 350.344 416.036 350.291 420.711 350.703 425.325 351.641 429.79 353.088L514.652 122.753C483.167 104.753 472.235 64.6378 490.235 33.1526 508.235 1.66746 548.35-9.26452 579.835 8.73537 611.321 26.7353 622.253 66.8509 604.253 98.336 592.575 118.762 570.861 131.38 547.333 131.412ZM43.6763 547.179C43.634 559.304 53.4283 569.167 65.5526 569.209 77.6769 569.251 87.5398 559.457 87.5821 547.333 87.6244 535.208 77.8301 525.345 65.7058 525.303 65.6931 525.303 65.6804 525.303 65.6676 525.303 53.5858 525.239 43.74 534.982 43.6766 547.064 43.6764 547.102 43.6763 547.141 43.6763 547.179ZM153.25 218.918C141.168 218.939 131.391 228.75 131.412 240.832 131.433 252.914 141.245 262.692 153.327 262.671 165.394 262.649 175.165 252.861 175.165 240.794 175.165 228.712 165.37 218.918 153.288 218.918 153.276 218.918 153.263 218.918 153.25 218.918ZM416.074 394.006C403.992 393.944 394.147 403.688 394.085 415.769 394.023 427.851 403.767 437.696 415.849 437.758 427.93 437.82 437.775 428.077 437.837 415.995 437.857 412.154 436.865 408.376 434.962 405.04 431.078 398.202 423.823 393.975 415.959 393.968ZM547.409 43.9061C535.285 43.8639 525.422 53.6583 525.38 65.7826 525.338 77.9069 535.132 87.7698 547.256 87.812 559.38 87.8543 569.243 78.06 569.286 65.9358 569.328 53.8116 559.534 43.9485 547.409 43.9061 547.409 43.9061 547.409 43.9061 547.409 43.9061ZM76.625 344.813 0 344.813 0 0 421.438 0 421.438 76.625 76.625 76.625 76.625 344.813Z" fill="#23B8AA" transform="matrix(1.00163 0 0 1 1813 931)"/></g></g></g></g></svg>