<svg width="1764" height="1089" xmlns="http://www.w3.org/2000/svg" xmlns:xlink="http://www.w3.org/1999/xlink" xml:space="preserve" overflow="hidden"><defs><clipPath id="clip0"><rect x="1235" y="798" width="1764" height="1089"/></clipPath></defs><g clip-path="url(#clip0)" transform="translate(-1235 -798)"><g><g><g><path d="M2090 798C2063.38 798 2037.47 801.158 2012.72 807.152L2012.72 807.217C2004.15 809.215 1997.83 816.885 1997.83 826.037 1997.83 836.736 2006.47 845.373 2017.17 845.373 2018.84 845.373 2020.58 845.18 2022.13 844.728 2043.92 839.508 2066.67 836.736 2090.06 836.736 2251 836.736 2381.33 967.125 2381.33 1128 2381.33 1288.87 2250.94 1419.26 2090 1419.26 1929.06 1419.26 1798.74 1288.94 1798.74 1128 1798.74 1090.29 1805.89 1054.39 1818.91 1021.39 1820.01 1018.95 1820.59 1016.3 1820.59 1013.53 1820.59 1002.83 1811.95 994.195 1801.25 994.195 1793.45 994.195 1786.62 998.836 1783.65 1005.54L1783.65 1005.47C1768.31 1043.24 1760 1084.62 1760 1128 1760 1310.21 1907.79 1458 2090 1458 2272.21 1458 2420 1310.21 2420 1128 2420 945.791 2272.21 798 2090 798Z" fill="#16BFB5"/><path d="M1880.85 917.625C1886.13 917.625 1890.97 915.498 1894.45 912.017 1903.09 904.219 1912.24 896.871 1921.71 890.103 1926.93 886.623 1930.41 880.758 1930.41 873.926 1930.41 863.226 1921.78 854.59 1911.08 854.59 1906.44 854.59 1902.18 856.201 1898.77 859.037L1898.7 859.037C1887.81 866.771 1877.37 875.215 1867.57 884.174 1863.9 887.719 1861.51 892.681 1861.51 898.16 1861.51 908.988 1870.15 917.625 1880.85 917.625ZM2014.65 1146.82C2021.49 1146.82 2028 1145.34 2033.8 1142.7L2098.19 1204.89C2092.58 1214.3 2089.42 1225.32 2089.42 1237.05 2089.42 1271.92 2117.71 1300.28 2152.65 1300.28 2187.52 1300.28 2215.88 1271.99 2215.88 1237.05 2215.88 1216.62 2206.21 1198.51 2191.19 1186.97L2239.27 1084.43 2237.79 1083.78C2240.69 1084.24 2243.59 1084.43 2246.62 1084.43 2281.49 1084.43 2309.85 1056.13 2309.85 1021.2 2309.85 986.267 2281.3 958.101 2246.43 958.101 2211.56 958.101 2183.2 986.396 2183.2 1021.33 2183.2 1041.63 2192.8 1059.68 2207.63 1071.28L2162.9 1174.92C2159.48 1174.34 2156.06 1174.02 2152.52 1174.02 2140.14 1174.02 2128.61 1177.63 2118.81 1183.75L2056.29 1121.36C2059.45 1115.04 2061.32 1107.89 2061.32 1100.35 2061.32 1074.57 2040.37 1053.69 2014.65 1053.69 1988.94 1053.69 1968.05 1074.5 1968.05 1100.28 1968.05 1108.92 1970.44 1116.98 1974.5 1123.87L1999.7 1144.44C2004.21 1145.92 2009.3 1146.82 2014.65 1146.82Z" fill="#16BFB5"/><path d="M1933.44 1177.18C1929.64 1176.15 1925.58 1175.57 1921.46 1175.57 1895.67 1175.57 1874.79 1196.51 1874.79 1222.23 1874.79 1247.95 1895.74 1268.89 1921.46 1268.89 1947.17 1268.89 1968.12 1247.95 1968.12 1222.23 1968.12 1212.43 1965.09 1203.35 1959.93 1195.93L1999.51 1144.37 1999.44 1144.31 1974.31 1123.75 1974.24 1123.75 1933.44 1177.18Z" fill="#16BFB5"/></g></g></g><text fill="#747474" font-family="Arial Black,Arial Black_MSFontService,sans-serif" font-weight="900" font-size="202" transform="matrix(1 0 0 1 1356.55 1713)">HarmonyFlow</text></g></svg>